PathFileType	4	(X/Y/Z)	Patient5_TMGait_0pt45_1_right_08.trc.trc
DataRate	CameraRate	NumFrames	NumMarkers	Units	OrigDataRate	OrigDataStartFrame	OrigNumFrames
57.377049180328	57.377049180328	4	32	mm	57.377049180328	18	       141
Frame#	Time	R.ASIS			L.ASIS			Chest			R.Shoulder			Neck			L.Shoulder			L.Elbow			L.Wrist			R.Elbow			R.Wrist			L.Thigh.Superior			L.Thigh.Lateral			L.Thigh.Inferior			L.Patella			L.Shank.Superior			L.Shank.Lateral			L.Shank.Inferior			L.Heel			L.Midfoot.Lateral			L.Midfoot.Superior			L.Toe			R.Thigh.Superior			R.Thigh.Lateral			R.Thigh.Inferior			R.Patella			R.Shank.Superior			R.Shank.Lateral			R.Shank.Inferior			R.Heel			R.Midfoot.Lateral			R.Midfoot.Superior			R.Toe			
		X1	Y1	Z1	X2	Y2	Z2	X3	Y3	Z3	X4	Y4	Z4	X5	Y5	Z5	X6	Y6	Z6	X7	Y7	Z7	X8	Y8	Z8	X9	Y9	Z9	X10	Y10	Z10	X11	Y11	Z11	X12	Y12	Z12	X13	Y13	Z13	X14	Y14	Z14	X15	Y15	Z15	X16	Y16	Z16	X17	Y17	Z17	X18	Y18	Z18	X19	Y19	Z19	X20	Y20	Z20	X21	Y21	Z21	X22	Y22	Z22	X23	Y23	Z23	X24	Y24	Z24	X25	Y25	Z25	X26	Y26	Z26	X27	Y27	Z27	X28	Y28	Z28	X29	Y29	Z29	X30	Y30	Z30	X31	Y31	Z31	X32	Y32	Z32	

18	13.146285714286	1024.884165289203	998.352419339190	524.166201062279	1013.155186079648	961.387717562453	283.696513169726	1056.603657778425	1443.762727220463	402.602326596283	947.229878314688	1504.728004338220	564.819924515741	930.509727671665	1561.320217862343	380.036359536213	999.263170729779	1504.235626840404	203.095583580387	956.428347428592	1177.924710919282	78.215617273706	1095.950636526403	925.682874397729	91.581447042552	858.656537203941	1188.129651083093	707.163902029912	1076.240894543850	1004.186265964592	649.780753798729	1002.336334230829	732.338286384840	288.117860248906	911.196560554395	673.139733419078	255.113247397786	973.347081686361	604.045430676893	312.565518568339	943.002533341469	487.761638873287	320.249531274906	880.331277041794	395.561663804543	348.485489625352	793.417163121944	340.669779232515	279.168387013086	826.913341907259	281.479767480285	365.215675798116	655.418349572583	60.881484340641	377.370825586157	744.038622122549	30.062621672170	320.839755001928	842.384726642977	89.442371060159	361.768313127459	945.389592501992	45.022953440962	373.598840406556	1097.173239319199	785.904319109363	560.071173724879	1042.121737378625	694.729621373182	625.606449547373	1130.167839406297	661.588009222057	551.257180783312	1161.973265225382	568.560042461715	590.766587139567	1132.671468047408	455.910676587452	559.440441405146	1066.602008755205	382.346832439974	641.296274413842	1129.239924940680	315.607345899513	562.997432997822	1032.193200508840	81.816919030773	536.922442570579	1114.290406621933	50.687672312068	606.169404007954	1212.803139166242	128.439562014845	595.154650077794	1319.813946188901	95.399819936823	589.731802737704	
19	13.163714285714	1025.710724278436	995.243500545987	525.687865631795	1012.957982965930	960.520696574748	285.492213773125	1056.156742209903	1442.815572303500	405.184792710734	947.926985894659	1503.163585375377	568.488644834118	929.328948979615	1559.923155401757	383.939396194874	996.492727972858	1503.384689304100	206.109117579769	949.557970641156	1178.179292168708	80.039455417098	1085.882434317888	923.979848810533	91.082649212957	861.251929998534	1186.019193565124	710.713820595944	1078.921114679289	1003.085513598066	650.447653779269	999.959252264691	731.463671444794	288.706050187598	908.047067254589	673.184201344752	255.759644146311	969.940239202699	603.409055266801	312.831885895474	938.009628634977	487.232426021675	320.064975198837	874.723817096318	395.552634851906	348.235998799144	786.777914503879	341.733143229738	279.393307557101	820.581015277336	282.126261245745	365.309537384737	647.733132467740	61.873374765852	376.982317576381	736.235018265601	30.375564681596	320.619245574698	834.783945603007	89.567821600402	361.204743669684	937.402397519364	45.115520042322	373.479168579569	1095.956839629863	780.691366293765	560.768520839371	1038.546830817416	689.252596872486	624.650666027890	1126.645262106567	655.851723226683	550.413916476787	1156.560679804487	562.276655863498	588.855240531536	1127.528609250356	450.471807572218	556.098999690019	1060.580491230336	376.131279810953	636.697624274378	1124.052123098454	310.053838969519	558.406489007239	1027.058179956430	76.813668958050	529.251044325461	1108.525747684414	44.620314130279	598.703588812972	1207.507473493535	122.018887674318	589.222661506868	1314.375529209701	88.476832835957	584.136324724116	
20	13.181142857143	1027.029241874462	992.137742782392	527.696372415890	1012.950809299373	959.391940679977	287.482743137723	1056.021645691793	1441.612455383846	407.960403901762	948.991891886874	1501.349130647824	572.372789564234	928.501070564529	1558.314374544145	388.084349283007	994.040281779379	1502.342660935238	209.370485644708	942.888387738948	1178.348994914156	82.057092878042	1075.901469080543	922.194836493060	90.774071131265	864.147357809159	1183.659629895558	714.413097806238	1081.890831164182	1001.733126261986	651.362225591096	997.680087656861	730.378205031589	289.497212954883	904.994411811213	673.056696096183	256.663117080142	966.622257528405	602.600831538038	313.285194297145	933.083220074503	486.540354855894	320.088155005758	869.174731128263	395.433885811112	348.166150341368	780.215048838093	342.736193678478	279.759102409067	814.265382669241	282.637636775506	365.503898545205	640.038225106021	62.799578251851	376.662396379769	728.412873504305	30.709145384403	320.429050385952	827.142233946637	89.695684034892	360.683832329353	929.410638625421	45.214115239844	373.360168709493	1094.863501904598	775.343735581773	561.626356099019	1035.103496024081	683.681960562152	623.689967209747	1123.350751960677	650.009008949374	549.635349787384	1151.271007522509	555.813905368998	586.901014400363	1122.291708408193	444.926887096457	552.620151509314	1054.418169298689	369.933834564107	631.965406189144	1118.529098435471	304.431532569365	553.595025722020	1021.080629945238	71.982342170440	521.486970286289	1101.816052261424	38.918718104318	591.273622167215	1201.531586238047	115.485045874070	582.744752455869	1308.128285346901	81.014892962426	578.158741309274	
21	13.198571428571	1028.779954413584	989.015867077280	530.104022588613	1013.135785378988	958.019869917561	289.672481399053	1056.214425267514	1440.165804380116	410.936821771675	950.452142717329	1499.297056204918	576.482953305526	928.043264767405	1556.518053331309	392.476536587301	991.890919329257	1501.103232873550	212.885535746385	936.410234176241	1178.414974931362	84.317235644832	1066.039902505220	920.339534839705	90.659407746447	867.393293720757	1181.055324913689	718.286536484280	1085.142220760387	1000.059777590590	652.545573793748	995.609565569106	729.112456627136	290.502072749094	902.142255120529	672.757620000655	257.840125253813	963.499109650593	601.620428906626	313.918864734067	928.356301351596	485.638489771140	320.312097396497	863.786760702630	395.178902975158	348.278768551598	773.828136209803	343.672245743872	280.253969066810	808.035582534805	282.933472812679	365.678806753535	632.338074256783	63.692350359428	376.416560539368	720.578249691416	31.082037456708	320.277163759950	819.464927723086	89.837155064263	360.220573771693	921.416707806365	45.309254757305	373.246658195961	1093.910029574104	769.951027362217	562.549760517689	1031.938754626322	678.136974100818	622.764692158659	1120.326604749511	644.174061263722	548.857831453503	1146.268231982657	549.308886189281	584.847528043918	1117.104378796872	439.387328713995	549.038272319781	1048.390005302791	363.884873762431	627.254342691253	1112.841418849114	298.861242051086	548.646716332098	1014.453538078860	67.367909407354	513.925786863038	1094.384161062656	33.880433644693	584.248589494055	1195.063193295555	109.118030455693	575.808498564500	1301.276221134842	73.331123279546	571.979374885383	
